<?xml version="1.0" encoding="UTF-8"?>
<svg id="Layer_1" xmlns="http://www.w3.org/2000/svg" version="1.1" xmlns:xlink="http://www.w3.org/1999/xlink" viewBox="0 0 404.15 65.27">
  <defs>
    <style>
      .st0 { fill: url(#linear-gradient2); }
      .st1 { fill: #0F0F1A; }
      .st1-accent { fill: url(#grad-wordmark); }
      .st2 { opacity: .15; fill: #13110c; fill-rule: evenodd; }
      .st3 { opacity: .1; fill: #13110c; fill-rule: evenodd; }
      .st4 { fill: url(#linear-gradient1); }
      .st5 { clip-path: url(#clippath-1); }
      .st6 { clip-rule: evenodd; fill: none; }
      .st7 { clip-path: url(#clippath-2); }
      .st8 { fill: url(#linear-gradient); }
      .st9 { clip-path: url(#clippath); }
    </style>
    <!-- ORIGINAL gradients from the real Metacasa logo -->
    <clipPath id="clippath">
      <polygon class="st6" points="58.53 30.09 58.53 47.68 64.22 54.51 73.76 56.47 73.76 45.47 73.76 42.59 73.76 21.29 55.32 10.65 36.88 0 21.65 8.8 36.88 17.59 58.53 30.09"/>
    </clipPath>
    <linearGradient id="linear-gradient" x1="-727.03" y1="-790.94" x2="-779.2" y2="-838.56" gradientTransform="translate(803.01 844.99)" gradientUnits="userSpaceOnUse">
      <stop offset="0" stop-color="#3472b8"/>
      <stop offset=".47" stop-color="#2fb195"/>
      <stop offset="1" stop-color="#bccf00"/>
    </linearGradient>
    <clipPath id="clippath-1">
      <polygon class="st6" points="15.23 65.27 58.53 65.27 73.76 56.47 58.53 47.68 15.23 47.68 12.37 55.99 15.23 65.27"/>
    </clipPath>
    <linearGradient id="linear-gradient1" x1="-793.53" y1="-794.76" x2="-729.25" y2="-794.76" gradientTransform="translate(803.01 844.99)" gradientUnits="userSpaceOnUse">
      <stop offset="0" stop-color="#a94c97"/>
      <stop offset=".49" stop-color="#ea4e8f"/>
      <stop offset="1" stop-color="#fbbc21"/>
    </linearGradient>
    <clipPath id="clippath-2">
      <polygon class="st6" points="15.23 47.68 15.23 30.09 36.88 17.59 21.65 8.79 18.44 10.65 0 21.29 0 42.59 0 46.62 0 56.47 15.23 65.27 15.23 47.68"/>
    </clipPath>
    <linearGradient id="linear-gradient2" x1="-784.57" y1="-838.69" x2="-784.57" y2="-786.87" gradientTransform="translate(803.01 844.99)" gradientUnits="userSpaceOnUse">
      <stop offset="0" stop-color="#1f84c7"/>
      <stop offset=".45" stop-color="#7c5fa5"/>
      <stop offset="1" stop-color="#cc64a3"/>
    </linearGradient>
    <!-- NEW: wordmark gradient for CASA -->
    <linearGradient id="grad-wordmark" x1="260" y1="38" x2="404" y2="38" gradientUnits="userSpaceOnUse">
      <stop offset="0" stop-color="#7A00DF"/>
      <stop offset="1" stop-color="#0891B2"/>
    </linearGradient>
  </defs>
  <!-- ORIGINAL MARK (unchanged) -->
  <g>
    <g>
      <g class="st9"><rect class="st8" x="21.65" width="52.11" height="56.47"/></g>
      <g class="st5"><rect class="st4" x="12.37" y="35.18" width="61.4" height="30.09"/></g>
      <g class="st7"><rect class="st0" y="8.79" width="36.88" height="56.47"/></g>
      <polygon class="st2" points="20.98 9.18 33.99 19.26 36.88 17.59 21.65 8.8 20.98 9.18"/>
      <polygon class="st3" points="58.51 47.68 58.51 44.15 73.74 55.59 73.74 56.48 58.51 47.68"/>
    </g>
    <polygon class="st2" points="15.22 65.27 16.04 65.27 18.66 47.67 15.22 47.7 15.22 65.27"/>
  </g>
  <!-- WORDMARK: META dark + CASA gradient -->
  <g>
    <polygon class="st1" points="137.9 56.3 134.72 56.3 134.72 27.97 121.69 49.73 119.67 49.73 106.64 27.97 106.64 56.3 103.47 56.3 103.47 20.75 104.4 20.75 104.92 20.75 105.97 20.75 120.68 45.31 135.39 20.75 136.44 20.75 136.95 20.75 137.9 20.75 137.9 56.3"/>
    <polygon class="st1" points="176.05 56.3 151.95 56.3 151.95 20.75 175.63 20.75 175.63 23.92 155.12 23.92 155.12 36.56 173.09 36.56 173.09 39.74 155.12 39.74 155.12 53.13 176.05 53.13 176.05 56.3"/>
    <polygon class="st1" points="200.03 56.3 196.86 56.3 196.86 23.92 184.09 23.92 184.09 20.75 212.79 20.75 212.79 23.92 200.03 23.92 200.03 56.3"/>
    <path class="st1" d="M251.96,56.3h-3.47l-5.18-11.92h-15.98l-5.2,11.92h-3.47l15.52-35.55h2.31l15.47,35.55ZM228.71,41.21h13.22l-6.6-15.18-6.62,15.18Z"/>
    <path class="st1-accent" d="M275.88,56.54c-2.43,0-4.69-.54-6.74-1.61-2.01-1.05-3.79-2.47-5.26-4.21-1.47-1.74-2.62-3.71-3.41-5.88-.79-2.16-1.19-4.39-1.19-6.6s.38-4.25,1.12-6.31c.74-2.07,1.84-3.98,3.27-5.69,1.44-1.72,3.22-3.12,5.29-4.16,2.09-1.04,4.5-1.57,7.17-1.57,3.18,0,5.93.75,8.17,2.22,2.23,1.47,3.91,3.38,5,5.69l.54,1.15-3,.95-.43-.83c-.77-1.47-1.72-2.66-2.84-3.53-1.14-.88-2.36-1.52-3.65-1.9-1.31-.39-2.65-.59-3.98-.59-2.13,0-4.04.42-5.69,1.24-1.66.83-3.09,1.96-4.23,3.37-1.16,1.42-2.05,3.02-2.65,4.75-.6,1.74-.9,3.53-.9,5.34,0,1.98.35,3.89,1.05,5.67.7,1.79,1.69,3.41,2.94,4.8,1.25,1.39,2.71,2.5,4.36,3.31,2.78,1.37,6.05,1.61,9.43.5,1.4-.46,2.74-1.17,3.99-2.12,1.21-.93,2.21-2.14,2.97-3.62l.41-.79,3.03.8-.54,1.2c-.82,1.81-2.04,3.37-3.6,4.63-1.53,1.23-3.25,2.18-5.1,2.81-1.84.63-3.69.95-5.5.95Z"/>
    <path class="st1-accent" d="M330.29,56.3h-3.47l-5.18-11.92h-15.99l-5.2,11.92h-3.47l15.52-35.55h2.31l15.47,35.55ZM307.03,41.21h13.22l-6.6-15.18-6.62,15.18Z"/>
    <path class="st1-accent" d="M351.25,56.54c-1.87,0-3.63-.2-5.22-.59-1.61-.4-3.14-1.02-4.54-1.83-1.39-.81-2.72-1.84-3.97-3.05l-.87-.85,2.42-2.1.74.76c.79.82,1.62,1.53,2.46,2.11.83.58,1.73,1.06,2.67,1.43.93.37,1.94.65,2.98.83,1.05.18,2.2.27,3.38.27,3.08,0,5.52-.57,7.25-1.69,1.6-1.04,2.38-2.56,2.38-4.65,0-1.4-.31-2.52-.94-3.33-.65-.85-1.71-1.57-3.16-2.13-1.57-.61-3.63-1.17-6.12-1.66-2.48-.47-4.63-1.02-6.38-1.61-1.91-.64-3.4-1.57-4.41-2.77-1.06-1.25-1.6-2.96-1.6-5.07s.55-4.04,1.64-5.55c1.08-1.5,2.61-2.65,4.56-3.42,1.88-.73,4.08-1.11,6.56-1.11,1.49,0,2.87.14,4.12.42,1.28.29,2.47.76,3.56,1.39,1.08.63,2.1,1.48,3.05,2.54l.69.76-2.13,2.3-.82-.89c-.61-.66-1.22-1.22-1.82-1.65-.59-.43-1.22-.77-1.86-1.01-.65-.25-1.36-.44-2.11-.55-.78-.12-1.64-.18-2.58-.18-3.49,0-6.02.64-7.51,1.92-1.46,1.24-2.16,2.86-2.16,4.95,0,1.33.28,2.37.84,3.09.58.75,1.56,1.37,2.89,1.84,1.5.53,3.47,1.04,5.88,1.53,2.51.51,4.72,1.1,6.58,1.75,1.99.71,3.56,1.69,4.66,2.94,1.17,1.32,1.76,3.12,1.76,5.36,0,1.52-.31,2.9-.92,4.1-.61,1.21-1.52,2.23-2.68,3.04-1.12.78-2.49,1.38-4.06,1.78-1.53.4-3.28.6-5.18.6Z"/>
    <path class="st1-accent" d="M404.15,56.3h-3.47l-5.18-11.92h-15.98l-5.2,11.92h-3.47l15.52-35.55h2.31l15.47,35.55ZM380.9,41.21h13.22l-6.6-15.18-6.62,15.18Z"/>
  </g>
</svg>
